inDegrees=yes
name=ik_Xsens_quaternion
DataType=double
version=3
OpenSimVersion=4.4-2022-07-23-0e9fedc
endheader
time	r_shoulder_elev	r_elbow_flex
38.65	-995.3431714637919	2751.320710376697
38.66666666666666	-996.7876567359518	2763.735738213622
38.68333333333333	-990.0011985923049	2763.731549848598
38.7	-975.3774902380719	2765.45002041559
38.71666666666667	-958.5400459533051	2776.813303899332
38.73333333333333	-945.6114588928277	2791.545046063443
38.75	-939.6446721321498	2802.676518216548
38.76666666666667	-939.1306886922624	2819.486960893373
38.78333333333333	-940.0200751385817	2848.409321515051
38.8	-941.3313336648843	2864.096416878773
38.81666666666666	-943.0750180650315	2875.863429420079
38.83333333333334	-946.6252970275384	2891.265541900795
38.85	-950.4355468733214	2905.048031251309
38.86666666666667	-952.0806395782207	2910.415662792846
38.88333333333333	-951.341177132446	2909.542834188558
38.9	-952.2209469677246	2906.903333646794
38.91666666666666	-956.6695281866204	2905.427260217416
38.93333333333333	-963.0648417074005	2904.201139811942
38.95	-969.0230354359508	2902.59482520967
38.96666666666667	-974.3377513777402	2900.647750786161
38.98333333333333	-979.9168012620765	2899.127655473044
39	-986.5123973656778	2899.002675072876
39.01666666666667	-993.1050233159639	2899.081165594566
39.03333333333333	-998.388216803232	2897.304681587155
39.05	-1002.857580093541	2894.788507845814
39.06666666666666	-1007.386193496548	2893.832215691425
39.08333333333334	-1014.462992925116	2892.370364960161
39.1	-1021.667512268624	2888.504320419848
39.11666666666667	-1026.500064557516	2880.395573783281
39.13333333333333	-1030.462925128511	2873.742709607491
39.15	-1034.00005631648	2871.572404924251
39.16666666666666	-1036.546769212991	2871.49370936501
39.18333333333333	-1037.649857982014	2870.560241689433
39.2	-1039.649945935159	2870.344060149804
39.21666666666667	-1042.560228445022	2870.230713993205
39.23333333333333	-1044.760896849899	2871.136427825156
39.25	-1044.049933641471	2871.264656437371
39.26666666666667	-1042.380027422746	2871.358976464553
39.28333333333333	-1041.235721075988	2873.423996774923
39.3	-1041.072505844655	2879.287617165602
39.31666666666666	-1040.4145448754	2886.069467122241
39.33333333333334	-1038.665072155276	2891.24962800193
39.35	-1035.31071596881	2892.518267487774
39.36666666666667	-1031.837177720158	2893.172131389868
39.38333333333333	-1029.803578980173	2895.799616758307
39.4	-1027.578248121198	2899.29194785648
39.41666666666666	-1023.684613345417	2900.057149366639
39.43333333333333	-1019.622753601664	2899.891615824502
39.45	-1015.98720889442	2898.501056167347
39.46666666666667	-1013.139510145656	2897.53888975005
39.48333333333333	-1010.879583581043	2896.791283279622
39.5	-1008.136538095231	2894.898049440816
39.51666666666667	-1004.78773329345	2891.73874108017
39.53333333333333	-1002.258986213503	2886.885939833027
39.55	-1001.41622013524	2881.964069399103
39.56666666666666	-1002.502454197524	2879.628043565418
39.58333333333334	-1003.172754286896	2878.024203942278
39.6	-1003.49515035618	2876.755098580125
39.61666666666667	-1003.704048198705	2877.288234023677
39.63333333333333	-1004.28907246135	2879.578542672661
39.65	-1005.177762416817	2886.937379733274
39.66666666666666	-1006.470681180621	2900.699597765425
39.68333333333333	-1006.344934701212	2917.14959629341
39.7	-1005.687287511294	2931.197944682147
39.71666666666667	-1004.598477529802	2939.523615417403
39.73333333333333	-1003.061849955487	2941.08023757618
39.75	-1001.36796556488	2935.298233149793
39.76666666666667	-999.2580209696072	2922.89611220091
39.78333333333333	-995.454269175331	2902.258609919358
39.8	-990.0144510738882	2878.405406226917
39.81666666666666	-985.0064867668732	2856.780783379518
39.83333333333334	-980.8548413514177	2837.476433188717
39.85	-976.6894879435461	2829.70101956161
39.86666666666667	-968.1918306584158	2853.344153929791
39.88333333333333	-955.955487063399	2939.446870498005
39.9	-948.5249359224645	2975.95365030898
39.91666666666666	-942.5017679562204	2969.044126453996
39.93333333333333	-938.4136302011982	2950.923187837601
39.95	-937.5797228705188	2930.162190876026
39.96666666666667	-937.5444122988148	2909.629481143008
39.98333333333333	-936.1619368474884	2893.528776400909
40	-932.4265689592761	2880.60231890159
40.01666666666667	-925.6803642538689	2862.679696966065
40.03333333333333	-919.8182314013906	2844.630114833623
40.05	-915.8922485851126	2831.831400407771
40.06666666666666	-913.0411855694922	2819.065460543972
40.08333333333334	-910.229315058274	2801.956469527076
40.1	-907.2475933645879	2786.318708351538
40.11666666666667	-903.999380447087	2774.276033936745
40.13333333333333	-901.1202062738917	2762.069703427834
40.15	-900.2046932907068	2748.040010167366
40.16666666666666	-901.6614959400865	2734.474050472211
40.18333333333333	-902.7182785171402	2719.703118433888
40.2	-899.9422894296661	2720.027575769833
40.21666666666667	-901.0676147606026	2704.617668741595
40.23333333333333	-904.0825730399267	2688.803825469134
40.25	-905.9502279880693	2671.786481043036
40.26666666666667	-905.8434022671653	2651.228698936312
40.28333333333333	-905.1013773398473	2623.716502363364
40.3	-867.18396189344	2708.64352903783
40.31666666666666	-881.4078702311879	2602.777911890234
40.33333333333334	-890.6376461197415	2570.701042775888
40.35	-896.4200998278615	2553.678204547047
40.36666666666667	-902.0634442249107	2544.521127131937
40.38333333333333	-906.9357021458285	2531.86085752369
40.4	-909.3518493649258	2516.1775036286
40.41666666666666	-908.6721263112124	2495.645443371558
40.43333333333333	-906.341444564778	2467.332484752534
40.45	-903.3247464317026	2430.449228762398
40.46666666666667	-900.8917737963455	2393.606966013414
40.48333333333333	-900.0637854380961	2357.776528656934
40.5	-900.6642768222677	2328.223875444256
40.51666666666667	-903.7333315987723	2299.742369486425
40.53333333333333	-908.1397310045313	2262.070651676428
40.55	-905.1762198539653	2181.9535659636
40.56666666666666	-880.5220317340123	2018.251484708427
40.58333333333334	-883.5999563493165	1935.229487327246
40.6	-889.5131165830408	1890.076232321567
40.61666666666667	-893.490354842334	1860.11269729638
40.63333333333333	-896.9600235694505	1834.67593551494
40.65	-898.8670550338315	1809.939498887317
40.66666666666666	-898.0620285601096	1777.816026136057
40.68333333333333	-895.4592883711416	1743.67677486245
40.7	-894.4558710475351	1719.191452355921
40.71666666666667	-894.8030062740055	1702.232562416681
40.73333333333333	-894.7370720891809	1695.525270842087
40.75	-894.4271504004755	1692.24515506662
40.76666666666667	-893.9834277218677	1684.243360776632
40.78333333333333	-893.7509291661538	1679.13268428097
40.8	-892.5977009428759	1671.30811726725
40.81666666666666	-891.9587847825321	1663.471671608681
40.83333333333334	-892.6724786985968	1656.626342973121
40.85	-892.6054766930406	1647.69248053685
40.86666666666667	-891.1400882265992	1644.254873583574
40.88333333333333	-889.7923884297029	1649.97556881228
40.9	-890.1353616434008	1659.959830640897
40.91666666666666	-892.2985987132155	1675.429456405316
40.93333333333333	-894.8490098234054	1690.680619422133
40.95	-897.9482127899616	1709.475553177136
40.96666666666667	-904.0654299130092	1738.188137089983
40.98333333333333	-910.7238586184126	1766.929953706978
41	-914.3771168209058	1784.284445656507
41.01666666666667	-915.9720462371585	1797.678133051659
41.03333333333333	-916.6774829571269	1806.086769235638
41.05	-917.0813797009226	1813.677205364542
41.06666666666666	-917.4124568061833	1815.878461854074
41.08333333333334	-919.0278411002446	1823.644693709014
41.1	-920.6679069138454	1821.335313721349
41.11666666666667	-920.092500105045	1806.74745948562
41.13333333333333	-918.2462198826179	1795.793443687671
41.15	-915.7392594376061	1785.053557392617
41.16666666666666	-914.5020118245493	1777.38414005821
41.18333333333333	-914.7961856058198	1772.197277725654
41.2	-915.2498170718009	1774.675167425731
41.21666666666667	-916.4597659370806	1787.106042171898
41.23333333333333	-917.9025366814457	1793.326973431252
41.25	-920.5924992563789	1801.62414079468
41.26666666666667	-923.0338609971262	1806.267185818678
